<svg version="1.1" id="Layer_1" xmlns="http://www.w3.org/2000/svg" xmlns:xlink="http://www.w3.org/1999/xlink" x="0px" y="0px"
	 width="100%" viewBox="0 0 726 727" enable-background="new 0 0 726 727" xml:space="preserve">
<path fill="#32A6A8" opacity="1.000000" stroke="none" 
	d="
M341.000000,728.000000 
	C227.333328,728.000000 114.166664,728.000000 1.000000,728.000000 
	C1.000000,485.666656 1.000000,243.333328 1.000000,1.000000 
	C243.000000,1.000000 485.000000,1.000000 727.000000,1.000000 
	C727.000000,243.333328 727.000000,485.666656 727.000000,728.000000 
	C598.500000,728.000000 470.000000,728.000000 341.000000,728.000000 
M394.499969,434.858887 
	C429.153870,434.858734 463.807739,434.864166 498.461639,434.855438 
	C510.309601,434.852448 512.887451,432.283905 512.889404,420.473267 
	C512.897034,374.489960 512.895874,328.506622 512.890503,282.523315 
	C512.889099,270.421051 510.618744,268.116089 498.677551,268.110992 
	C473.186798,268.100128 447.696045,268.112793 422.205292,268.102020 
	C414.872284,268.098938 413.932526,267.354279 411.603943,260.203918 
	C410.574249,257.042053 410.069763,253.446442 408.176178,250.905136 
	C406.410553,248.535629 403.146118,245.848343 400.495148,245.799164 
	C378.510986,245.391296 356.513275,245.403961 334.528229,245.784500 
	C332.083313,245.826813 328.978851,248.490448 327.457916,250.785248 
	C325.594238,253.597061 325.039703,257.289368 323.985596,260.622009 
	C322.319458,265.889465 319.068207,268.270050 313.248688,268.202240 
	C292.092560,267.955719 270.931824,268.102692 249.772842,268.108765 
	C240.443039,268.111420 231.110840,268.008453 221.784256,268.188171 
	C215.634369,268.306671 212.705048,271.209106 212.020950,277.313385 
	C211.836151,278.962433 211.864090,280.639954 211.863815,282.304382 
	C211.856400,328.287689 211.853394,374.271027 211.872269,420.254333 
	C211.873154,422.414062 211.960205,424.588470 212.219482,426.730347 
	C212.747238,431.090088 215.424789,433.622620 219.600800,434.411255 
	C221.868011,434.839417 224.237228,434.841064 226.560501,434.841980 
	C282.206970,434.863495 337.853455,434.858795 394.499969,434.858887 
M391.497925,484.264618 
	C429.651276,484.124847 467.804810,483.894897 505.957825,483.955872 
	C510.903595,483.963776 512.627319,482.410278 511.795624,477.717987 
	C511.654663,476.922852 511.544373,476.122284 511.325317,474.717468 
	C508.940491,474.717468 506.640259,474.710022 504.340118,474.718567 
	C410.540894,475.067383 316.741699,475.417694 222.942474,475.767578 
	C215.422241,475.795624 214.892700,476.519775 216.650864,484.268982 
	C274.612946,484.268982 332.555420,484.268982 391.497925,484.264618 
z"/>
<path fill="#F9FCFD" opacity="1.000000" stroke="none" 
	d="
M393.999939,434.858887 
	C337.853455,434.858795 282.206970,434.863495 226.560501,434.841980 
	C224.237228,434.841064 221.868011,434.839417 219.600800,434.411255 
	C215.424789,433.622620 212.747238,431.090088 212.219482,426.730347 
	C211.960205,424.588470 211.873154,422.414062 211.872269,420.254333 
	C211.853394,374.271027 211.856400,328.287689 211.863815,282.304382 
	C211.864090,280.639954 211.836151,278.962433 212.020950,277.313385 
	C212.705048,271.209106 215.634369,268.306671 221.784256,268.188171 
	C231.110840,268.008453 240.443039,268.111420 249.772842,268.108765 
	C270.931824,268.102692 292.092560,267.955719 313.248688,268.202240 
	C319.068207,268.270050 322.319458,265.889465 323.985596,260.622009 
	C325.039703,257.289368 325.594238,253.597061 327.457916,250.785248 
	C328.978851,248.490448 332.083313,245.826813 334.528229,245.784500 
	C356.513275,245.403961 378.510986,245.391296 400.495148,245.799164 
	C403.146118,245.848343 406.410553,248.535629 408.176178,250.905136 
	C410.069763,253.446442 410.574249,257.042053 411.603943,260.203918 
	C413.932526,267.354279 414.872284,268.098938 422.205292,268.102020 
	C447.696045,268.112793 473.186798,268.100128 498.677551,268.110992 
	C510.618744,268.116089 512.889099,270.421051 512.890503,282.523315 
	C512.895874,328.506622 512.897034,374.489960 512.889404,420.473267 
	C512.887451,432.283905 510.309601,434.852448 498.461639,434.855438 
	C463.807739,434.864166 429.153870,434.858734 393.999939,434.858887 
M441.499939,419.799469 
	C456.492004,419.799133 471.484070,419.814758 486.476105,419.792236 
	C494.958984,419.779480 497.829865,416.895447 497.832764,408.359161 
	C497.845978,369.379181 497.843475,330.399170 497.833527,291.419189 
	C497.831635,283.968018 496.848511,282.940979 489.549042,282.940002 
	C404.759247,282.928528 319.969452,282.927795 235.179642,282.941864 
	C227.821228,282.943115 226.934219,283.884186 226.932144,291.430267 
	C226.921265,331.076569 226.923187,370.722900 226.928955,410.369202 
	C226.930283,419.530579 227.210175,419.797516 236.604584,419.797882 
	C304.569702,419.800568 372.534790,419.799377 441.499939,419.799469 
z"/>
<path fill="#F4FAFA" opacity="1.000000" stroke="none" 
	d="
M390.997894,484.266785 
	C332.555420,484.268982 274.612946,484.268982 216.650864,484.268982 
	C214.892700,476.519775 215.422241,475.795624 222.942474,475.767578 
	C316.741699,475.417694 410.540894,475.067383 504.340118,474.718567 
	C506.640259,474.710022 508.940491,474.717468 511.325317,474.717468 
	C511.544373,476.122284 511.654663,476.922852 511.795624,477.717987 
	C512.627319,482.410278 510.903595,483.963776 505.957825,483.955872 
	C467.804810,483.894897 429.651276,484.124847 390.997894,484.266785 
z"/>
<path fill="#34A7A9" opacity="1.000000" stroke="none" 
	d="
M440.999939,419.799438 
	C372.534790,419.799377 304.569702,419.800568 236.604584,419.797882 
	C227.210175,419.797516 226.930283,419.530579 226.928955,410.369202 
	C226.923187,370.722900 226.921265,331.076569 226.932144,291.430267 
	C226.934219,283.884186 227.821228,282.943115 235.179642,282.941864 
	C319.969452,282.927795 404.759247,282.928528 489.549042,282.940002 
	C496.848511,282.940979 497.831635,283.968018 497.833527,291.419189 
	C497.843475,330.399170 497.845978,369.379181 497.832764,408.359161 
	C497.829865,416.895447 494.958984,419.779480 486.476105,419.792236 
	C471.484070,419.814758 456.492004,419.799133 440.999939,419.799438 
M335.190308,390.356445 
	C366.773438,415.627014 408.953522,396.888550 416.734070,362.862701 
	C422.885437,335.961609 406.927429,309.269470 380.168396,302.308624 
	C353.557526,295.386322 325.917633,310.965973 318.754486,337.427948 
	C313.179901,358.021515 319.082397,375.508881 335.190308,390.356445 
M245.168594,329.182526 
	C247.402267,330.355499 249.564178,332.334656 251.883896,332.541138 
	C257.475037,333.038879 263.144043,332.840515 268.774109,332.671143 
	C273.998352,332.513977 276.602722,329.753082 276.481964,324.978058 
	C276.365814,320.385956 273.915558,317.955872 268.789764,317.790283 
	C263.656799,317.624451 258.513885,317.684021 253.376740,317.752228 
	C245.748169,317.853516 243.390335,320.858643 245.168594,329.182526 
z"/>
<path fill="#FDFEFE" opacity="1.000000" stroke="none" 
	d="
M334.927155,390.115082 
	C319.082397,375.508881 313.179901,358.021515 318.754486,337.427948 
	C325.917633,310.965973 353.557526,295.386322 380.168396,302.308624 
	C406.927429,309.269470 422.885437,335.961609 416.734070,362.862701 
	C408.953522,396.888550 366.773438,415.627014 334.927155,390.115082 
z"/>
<path fill="#F5FBFB" opacity="1.000000" stroke="none" 
	d="
M245.001785,328.829498 
	C243.390335,320.858643 245.748169,317.853516 253.376740,317.752228 
	C258.513885,317.684021 263.656799,317.624451 268.789764,317.790283 
	C273.915558,317.955872 276.365814,320.385956 276.481964,324.978058 
	C276.602722,329.753082 273.998352,332.513977 268.774109,332.671143 
	C263.144043,332.840515 257.475037,333.038879 251.883896,332.541138 
	C249.564178,332.334656 247.402267,330.355499 245.001785,328.829498 
z"/>
</svg>